<?xml version="1.0" encoding="UTF-8"?>
<svg id="Layer_1" data-name="Layer 1" xmlns="http://www.w3.org/2000/svg" viewBox="0 0 2000 759.43">
  <defs>
    <style>
      .cls-1 {
        fill: #333;
      }

      .cls-2 {
        fill: #0d0d0d;
      }

      .cls-3 {
        fill: #1a1a1a;
      }
    </style>
  </defs>
  <g>
    <path d="M870.37,144.98c37.39,0,56.09,18.7,56.09,56.09v16.02c0,23.5-9.09,36.85-27.25,40.06,18.15,3.2,27.25,16.55,27.25,40.06v16.02c0,37.39-18.7,56.08-56.09,56.08h-88.13V144.98h88.13Zm-56.09,32.05v64.09h56.09c16.02,0,24.03-8.01,24.03-24.03v-16.02c0-16.03-8.01-24.04-24.03-24.04h-56.09Zm0,96.14v64.09h56.09c16.02,0,24.03-8.01,24.03-24.03v-16.02c0-16.03-8.01-24.04-24.03-24.04h-56.09Z"/>
    <path d="M990.54,302v11.22c0,16.02,8.03,24.03,24.05,24.03h64.08v32.05h-64.08c-37.39,0-56.09-18.69-56.09-56.08v-48.07c0-37.38,18.7-56.08,56.09-56.08h16.02c37.39,0,56.07,18.7,56.07,56.08v36.85h-96.14Zm0-25.64h64.1v-11.21c0-16.02-8.01-24.04-24.03-24.04h-16.02c-16.02,0-24.05,8.02-24.05,24.04v11.21Z"/>
    <path d="M1246.9,209.07v160.23c0,42.73-21.36,64.09-64.08,64.09h-48.08v-32.04h48.08c21.36,0,32.04-10.69,32.04-32.05v-16.02c-10.69,10.68-24.03,16.02-40.05,16.02-37.39,0-56.09-18.69-56.09-56.08v-104.15h32.04v104.15c0,16.02,8.03,24.03,24.05,24.03s29.37-2.67,40.05-8.01v-120.17h32.04Z"/>
    <path d="M1407.13,321.23c0,32.05-16.02,48.07-48.06,48.07h-32.04c-32.06,0-48.08-16.02-48.08-48.07v-64.09c0-32.05,16.02-48.07,48.08-48.07h32.04c32.04,0,48.06,16.02,48.06,48.07v64.09Zm-96.14,0c0,10.69,5.35,16.02,16.04,16.02h32.04c10.69,0,16.02-5.34,16.02-16.02v-64.09c0-9.62-5.34-14.42-16.02-14.42h-32.04c-10.69,0-16.04,4.8-16.04,14.42v64.09Z"/>
    <path d="M1471.23,369.3h-32.04V209.07h27.25l4.79,16.02c10.69-10.68,24.05-16.02,40.07-16.02,37.39,0,56.07,18.7,56.07,56.08v104.15h-32.04v-104.15c0-16.02-8.01-24.04-24.03-24.04s-29.38,2.68-40.07,8.02v120.17Z"/>
    <path d="M1695.55,144.98h32.04v224.33h-27.23l-4.81-16.02c-10.69,10.68-24.03,16.02-40.05,16.02-37.39,0-56.09-18.69-56.09-56.08v-48.07c0-37.38,18.7-56.08,56.09-56.08,16.02,0,29.37,5.34,40.05,16.02v-80.12Zm0,184.27v-80.11c-10.69-5.34-24.03-8.02-40.05-8.02s-24.05,8.02-24.05,24.04v48.07c0,16.02,8.03,24.03,24.05,24.03s29.37-2.67,40.05-8.01Z"/>
    <path d="M1791.69,302v11.22c0,16.02,8.03,24.03,24.05,24.03h64.08v32.05h-64.08c-37.39,0-56.09-18.69-56.09-56.08v-48.07c0-37.38,18.7-56.08,56.09-56.08h16.02c37.39,0,56.07,18.7,56.07,56.08v36.85h-96.14Zm0-25.64h64.1v-11.21c0-16.02-8.01-24.04-24.03-24.04h-16.02c-16.02,0-24.05,8.02-24.05,24.04v11.21Z"/>
    <path d="M1951.92,369.3h-32.04V209.07h27.25l4.79,16.02c10.69-10.68,24.05-16.02,40.07-16.02h8.01v32.04h-8.01c-16.02,0-29.38,2.68-40.07,8.02v120.17Z"/>
    <path d="M869.5,568.19c0-23.48-11.42-34.9-34.9-34.9h-21.04c-11.59,0-17.7-6.12-17.7-17.7v-10.52c0-11.58,6.12-17.7,17.7-17.7h55.94v-17.19h-55.94c-23.47,0-34.9,11.41-34.9,34.9v10.52c0,23.48,11.42,34.9,34.9,34.9h21.04c11.59,0,17.7,6.12,17.7,17.7v10.52c0,11.58-6.12,17.7-17.7,17.7h-55.94v17.19h55.94c23.47,0,34.9-11.41,34.9-34.9v-10.52Z"/>
    <path d="M1024.25,541.89c0-19.94-9.69-29.64-29.64-29.64h-21.04c-19.94,0-29.64,9.69-29.64,29.64v42.08c0,19.94,9.69,29.64,29.64,29.64h21.04c19.94,0,29.64-9.69,29.64-29.64v-42.08Zm-17.19,42.08c0,8.03-4.42,12.44-12.44,12.44h-21.04c-8.03,0-12.44-4.42-12.44-12.44v-42.08c0-7.35,4.42-11.39,12.44-11.39h21.04c8.03,0,12.44,4.04,12.44,11.39v42.08Z"/>
    <rect x="1098.7" y="470.17" width="17.19" height="143.43"/>
    <path d="M1225.23,613.61c9.93,0,18.32-3.35,24.95-9.96l2.27-2.28,3.67,12.23h14.53v-101.35h-17.19v78.16l-1.07,.53c-7.24,3.62-16.38,5.46-27.16,5.46-11.59,0-17.7-6.12-17.7-17.7v-66.46h-17.19v66.46c0,23.48,11.42,34.9,34.9,34.9Z"/>
    <path d="M1395.76,613.61h8.6v-17.19h-8.6c-11.59,0-17.7-6.12-17.7-17.7v-49.26h26.3v-17.19h-26.3v-40.89l-17.19,8.6v32.3h-15.78v17.19h15.78v49.26c0,23.48,11.42,34.9,34.9,34.9Z"/>
    <g>
      <rect x="1478.79" y="470.17" width="17.19" height="17.19"/>
      <rect x="1478.79" y="512.25" width="17.19" height="101.35"/>
    </g>
    <path d="M1650.75,541.89c0-19.94-9.69-29.64-29.64-29.64h-21.04c-19.94,0-29.64,9.69-29.64,29.64v42.08c0,19.94,9.69,29.64,29.64,29.64h21.04c19.94,0,29.64-9.69,29.64-29.64v-42.08Zm-17.19,42.08c0,8.03-4.42,12.44-12.44,12.44h-21.04c-8.03,0-12.44-4.42-12.44-12.44v-42.08c0-7.35,4.42-11.39,12.44-11.39h21.04c8.03,0,12.44,4.04,12.44,11.39v42.08Z"/>
    <path d="M1788.31,547.15v66.46h17.19v-66.46c0-23.48-11.42-34.9-34.9-34.9-9.93,0-18.32,3.35-24.95,9.96l-2.27,2.28-3.67-12.23h-14.53v101.35h17.19v-78.16l1.07-.53c7.24-3.62,16.38-5.46,27.16-5.46,11.59,0,17.7,6.12,17.7,17.7Z"/>
    <path d="M1925.35,553.28h-15.78c-8.03,0-12.44-4.04-12.44-11.39,0-8.03,4.42-12.44,12.44-12.44h45.42v-17.19h-45.42c-19.94,0-29.64,9.69-29.64,29.64s9.69,28.58,29.64,28.58h15.78c5.68,0,12.44,2.34,12.44,13.5,0,8.03-4.42,12.44-12.44,12.44h-45.42v17.19h45.42c19.94,0,29.64-9.69,29.64-29.64s-9.69-30.69-29.64-30.69Z"/>
  </g>
  <path class="cls-3" d="M575.14,117.39c-11.66,64.28-32.54,125.57-61.29,181.98C401.02,149.94,233.14,38.74,43.57,3.21H481.03c60.21,0,104.95,55.06,94.11,114.18Z"/>
  <path class="cls-1" d="M513.84,299.37c-5.69,11.12-11.67,21.97-17.9,32.82C394.24,508.47,214.16,634.04,3.43,660.89V39.83c0-.54,.27-1.36,.27-1.9,0-1.36,0-2.71,.27-4.07q0-.27,.27-.54c.27-2.71,1.09-5.42,2.17-7.86,.81-2.17,1.89-4.07,3.25-6.24,1.36-1.9,2.71-3.8,4.34-5.42,1.63-1.63,3.53-2.98,5.43-4.34,1.89-1.36,4.07-2.44,6.24-3.25,5.15-2.44,11.12-3.53,17.9-2.98,189.57,35.53,357.45,146.72,470.28,296.16Z"/>
  <path class="cls-2" d="M413.5,756.35H51.7c-26.85,0-48.28-21.7-48.28-48.28v-47.19c210.73-26.85,390.81-152.42,492.51-328.7,6.24-10.85,12.21-21.7,17.9-32.82,19.8,25.77,37.69,52.61,53.7,80.55,15.19,26.31,29.02,53.7,41.22,82.17,59.94,139.13-43.67,294.26-195.27,294.26Z"/>
</svg>