<?xml version="1.0" encoding="UTF-8"?>
<svg id="Layer_1" data-name="Layer 1" xmlns="http://www.w3.org/2000/svg" viewBox="0 0 1675.29 2000">
  <defs>
    <style>
      .cls-1 {
        fill: #333;
      }

      .cls-2 {
        fill: #0d0d0d;
      }

      .cls-3 {
        fill: #1a1a1a;
      }
    </style>
  </defs>
  <g>
    <path d="M129.61,1359.03c51.01,0,76.52,25.51,76.52,76.52v21.86c0,32.06-12.4,50.28-37.17,54.65,24.77,4.37,37.17,22.58,37.17,54.65v21.86c0,51.01-25.51,76.51-76.52,76.51H9.38v-306.05h120.23Zm-76.52,43.72v87.44h76.52c21.86,0,32.79-10.93,32.79-32.79v-21.86c0-21.87-10.93-32.8-32.79-32.8H53.09Zm0,131.16v87.44h76.52c21.86,0,32.79-10.93,32.79-32.79v-21.86c0-21.87-10.93-32.8-32.79-32.8H53.09Z"/>
    <path d="M293.56,1573.26v15.31c0,21.86,10.95,32.79,32.81,32.79h87.43v43.72h-87.43c-51.01,0-76.52-25.5-76.52-76.51v-65.58c0-51,25.51-76.51,76.52-76.51h21.86c51.01,0,76.5,25.51,76.5,76.51v50.28h-131.16Zm0-34.98h87.45v-15.3c0-21.86-10.93-32.8-32.79-32.8h-21.86c-21.86,0-32.81,10.94-32.81,32.8v15.3Z"/>
    <path d="M643.32,1446.47v218.6c0,58.29-29.14,87.44-87.43,87.44h-65.59v-43.71h65.59c29.14,0,43.71-14.58,43.71-43.72v-21.86c-14.58,14.57-32.79,21.86-54.64,21.86-51.01,0-76.52-25.5-76.52-76.51v-142.09h43.71v142.09c0,21.86,10.95,32.79,32.81,32.79s40.06-3.64,54.64-10.93v-163.95h43.71Z"/>
    <path d="M861.93,1599.49c0,43.72-21.86,65.58-65.57,65.58h-43.71c-43.73,0-65.59-21.86-65.59-65.58v-87.44c0-43.72,21.86-65.58,65.59-65.58h43.71c43.71,0,65.57,21.86,65.57,65.58v87.44Zm-131.16,0c0,14.58,7.3,21.86,21.88,21.86h43.71c14.58,0,21.86-7.28,21.86-21.86v-87.44c0-13.12-7.28-19.67-21.86-19.67h-43.71c-14.58,0-21.88,6.55-21.88,19.67v87.44Z"/>
    <path d="M949.38,1665.08h-43.71v-218.6h37.17l6.54,21.86c14.58-14.57,32.81-21.86,54.66-21.86,51.01,0,76.5,25.51,76.5,76.51v142.09h-43.71v-142.09c0-21.86-10.93-32.8-32.79-32.8s-40.09,3.65-54.66,10.94v163.95Z"/>
    <path d="M1255.42,1359.03h43.71v306.05h-37.15l-6.56-21.86c-14.58,14.57-32.79,21.86-54.64,21.86-51.01,0-76.52-25.5-76.52-76.51v-65.58c0-51,25.51-76.51,76.52-76.51,21.86,0,40.06,7.29,54.64,21.86v-109.31Zm0,251.4v-109.3c-14.58-7.29-32.79-10.94-54.64-10.94s-32.81,10.94-32.81,32.8v65.58c0,21.86,10.95,32.79,32.81,32.79s40.06-3.64,54.64-10.93Z"/>
    <path d="M1386.58,1573.26v15.31c0,21.86,10.95,32.79,32.81,32.79h87.43v43.72h-87.43c-51.01,0-76.52-25.5-76.52-76.51v-65.58c0-51,25.51-76.51,76.52-76.51h21.86c51.01,0,76.5,25.51,76.5,76.51v50.28h-131.16Zm0-34.98h87.45v-15.3c0-21.86-10.93-32.8-32.79-32.8h-21.86c-21.86,0-32.81,10.94-32.81,32.8v15.3Z"/>
    <path d="M1605.19,1665.08h-43.71v-218.6h37.17l6.54,21.86c14.58-14.57,32.81-21.86,54.66-21.86h10.93v43.71h-10.93c-21.86,0-40.09,3.65-54.66,10.94v163.95Z"/>
    <path d="M128.43,1936.42c0-32.04-15.58-47.61-47.61-47.61h-28.71c-15.81,0-24.15-8.36-24.15-24.15v-14.35c0-15.8,8.35-24.15,24.15-24.15h76.32v-23.46H52.11c-32.03,0-47.61,15.57-47.61,47.61v14.35c0,32.04,15.58,47.61,47.61,47.61h28.71c15.81,0,24.15,8.36,24.15,24.15v14.35c0,15.8-8.35,24.15-24.15,24.15H4.5v23.46H80.82c32.03,0,47.61-15.57,47.61-47.61v-14.35Z"/>
    <path d="M339.55,1900.54c0-27.21-13.22-40.43-40.43-40.43h-28.71c-27.21,0-40.43,13.22-40.43,40.43v57.41c0,27.21,13.22,40.43,40.43,40.43h28.71c27.21,0,40.43-13.22,40.43-40.43v-57.41Zm-23.46,57.41c0,10.95-6.03,16.98-16.98,16.98h-28.71c-10.95,0-16.98-6.03-16.98-16.98v-57.41c0-10.03,6.03-15.54,16.98-15.54h28.71c10.95,0,16.98,5.52,16.98,15.54v57.41Z"/>
    <rect x="441.13" y="1802.7" width="23.46" height="195.69"/>
    <path d="M613.75,1998.39c13.55,0,24.99-4.57,34.04-13.58l3.1-3.11,5,16.69h19.83v-138.28h-23.46v106.64l-1.46,.73c-9.88,4.94-22.35,7.45-37.05,7.45-15.81,0-24.15-8.36-24.15-24.15v-90.67h-23.46v90.67c0,32.04,15.58,47.61,47.61,47.61Z"/>
    <path d="M846.41,1998.39h11.73v-23.46h-11.73c-15.81,0-24.15-8.36-24.15-24.15v-67.21h35.88v-23.46h-35.88v-55.79l-23.46,11.73v44.06h-21.53v23.46h21.53v67.21c0,32.04,15.58,47.61,47.61,47.61Z"/>
    <g>
      <rect x="959.69" y="1802.7" width="23.46" height="23.46"/>
      <rect x="959.69" y="1860.11" width="23.46" height="138.28"/>
    </g>
    <path d="M1194.3,1900.54c0-27.21-13.22-40.43-40.43-40.43h-28.71c-27.21,0-40.43,13.22-40.43,40.43v57.41c0,27.21,13.22,40.43,40.43,40.43h28.71c27.21,0,40.43-13.22,40.43-40.43v-57.41Zm-23.46,57.41c0,10.95-6.03,16.98-16.98,16.98h-28.71c-10.95,0-16.98-6.03-16.98-16.98v-57.41c0-10.03,6.03-15.54,16.98-15.54h28.71c10.95,0,16.98,5.52,16.98,15.54v57.41Z"/>
    <path d="M1381.97,1907.72v90.67h23.46v-90.67c0-32.04-15.58-47.61-47.61-47.61-13.55,0-24.99,4.57-34.04,13.58l-3.1,3.11-5-16.69h-19.83v138.28h23.46v-106.64l1.46-.73c9.88-4.94,22.35-7.45,37.05-7.45,15.81,0,24.15,8.36,24.15,24.15Z"/>
    <path d="M1568.94,1916.08h-21.53c-10.95,0-16.98-5.52-16.98-15.54,0-10.95,6.03-16.98,16.98-16.98h61.96v-23.46h-61.96c-27.21,0-40.43,13.22-40.43,40.43s13.22,39,40.43,39h21.53c7.75,0,16.98,3.2,16.98,18.41,0,10.95-6.03,16.98-16.98,16.98h-61.96v23.46h61.96c27.21,0,40.43-13.22,40.43-40.43s-13.22-41.87-40.43-41.87Z"/>
  </g>
  <g>
    <path class="cls-3" d="M1245.65,180.73c-18.27,100.71-50.99,196.74-96.03,285.13C972.84,231.72,709.81,57.49,412.78,1.83h685.42c94.33,0,164.44,86.26,147.45,178.9Z"/>
    <path class="cls-1" d="M1149.62,465.85c-8.92,17.42-18.28,34.42-28.05,51.42-159.35,276.21-441.5,472.95-771.67,515.02V59.2c0-.85,.43-2.13,.43-2.97,0-2.13,0-4.25,.43-6.38q0-.43,.43-.85c.43-4.25,1.7-8.5,3.4-12.32,1.27-3.4,2.97-6.38,5.09-9.77,2.13-2.97,4.25-5.95,6.8-8.5,2.55-2.55,5.53-4.67,8.51-6.8,2.97-2.12,6.37-3.82,9.77-5.1,8.07-3.82,17.42-5.52,28.04-4.67,297.03,55.67,560.06,229.89,736.83,464.02Z"/>
    <path class="cls-2" d="M992.39,1181.86H425.53c-42.07,0-75.64-33.99-75.64-75.64v-73.94c330.17-42.07,612.32-238.81,771.67-515.02,9.77-17,19.13-33.99,28.05-51.42,31.02,40.37,59.06,82.44,84.14,126.21,23.8,41.22,45.47,84.14,64.59,128.75,93.91,217.99-68.42,461.05-305.95,461.05Z"/>
  </g>
</svg>