<?xml version="1.0" encoding="UTF-8"?>
<svg id="Layer_1" data-name="Layer 1" xmlns="http://www.w3.org/2000/svg" viewBox="0 0 1656.64 2000">
  <defs>
    <style>
      .cls-1 {
        fill: #333;
      }

      .cls-2 {
        fill: #0d0d0d;
      }

      .cls-3 {
        fill: #1a1a1a;
      }
    </style>
  </defs>
  <path class="cls-3" d="M1518.99,304.25c-30.93,170.48-86.31,333.04-162.57,482.66C1057.18,390.57,611.93,95.65,109.13,1.42H1269.39c159.69,0,278.36,146.02,249.6,302.83Z"/>
  <path class="cls-1" d="M1356.42,786.9c-15.1,29.49-30.94,58.26-47.49,87.04C1039.19,1341.49,561.58,1674.54,2.67,1745.75V98.53c0-1.44,.72-3.6,.72-5.04,0-3.6,0-7.2,.72-10.79q0-.72,.72-1.44c.72-7.19,2.88-14.38,5.76-20.86,2.14-5.76,5.02-10.79,8.62-16.54,3.6-5.04,7.2-10.07,11.5-14.39,4.32-4.32,9.36-7.91,14.4-11.51,5.02-3.6,10.78-6.47,16.54-8.63C75.32,2.86,91.15-.02,109.13,1.42c502.8,94.23,948.05,389.15,1247.29,785.49Z"/>
  <path class="cls-2" d="M1090.28,1998.95H130.71c-71.21,0-128.04-57.54-128.04-128.04v-125.16c558.91-71.21,1036.52-404.25,1306.26-871.81,16.54-28.77,32.38-57.54,47.49-87.04,52.51,68.34,99.98,139.55,142.42,213.64,40.29,69.77,76.97,142.42,109.34,217.95,158.97,369.01-115.82,780.46-517.9,780.46Z"/>
</svg>