<?xml version="1.0" encoding="UTF-8"?>
<svg id="Layer_1" data-name="Layer 1" xmlns="http://www.w3.org/2000/svg" viewBox="0 0 2000 769.5">
  <defs>
    <style>
      .cls-1 {
        fill: #0066cb;
      }
    </style>
  </defs>
  <path class="cls-1" d="M152.66,2.17c61.05,0,91.58,30.53,91.58,91.58v26.16c0,38.37-14.85,60.17-44.49,65.41,29.64,5.23,44.49,27.03,44.49,65.41v26.16c0,61.05-30.53,91.56-91.58,91.56H8.77V2.17H152.66ZM61.08,54.5v104.64h91.58c26.16,0,39.24-13.08,39.24-39.24v-26.16c0-26.17-13.08-39.25-39.24-39.25H61.08Zm0,156.97v104.64h91.58c26.16,0,39.24-13.08,39.24-39.24v-26.16c0-26.17-13.08-39.25-39.24-39.25H61.08Z"/>
  <path class="cls-1" d="M348.87,258.56v18.32c0,26.16,13.1,39.24,39.26,39.24h104.63v52.33h-104.63c-61.05,0-91.58-30.51-91.58-91.56v-78.49c0-61.04,30.53-91.56,91.58-91.56h26.16c61.05,0,91.55,30.53,91.55,91.56v60.17h-156.97Zm0-41.86h104.66v-18.31c0-26.16-13.08-39.25-39.24-39.25h-26.16c-26.16,0-39.26,13.09-39.26,39.25v18.31Z"/>
  <path class="cls-1" d="M767.44,106.82V368.44c0,69.76-34.87,104.64-104.63,104.64h-78.5v-52.32h78.5c34.87,0,52.32-17.45,52.32-52.33v-26.16c-17.45,17.43-39.24,26.16-65.39,26.16-61.05,0-91.58-30.51-91.58-91.56V106.82h52.32v170.05c0,26.16,13.1,39.24,39.26,39.24s47.95-4.36,65.39-13.08V106.82h52.32Z"/>
  <path class="cls-1" d="M1029.07,289.95c0,52.33-26.16,78.49-78.47,78.49h-52.32c-52.34,0-78.5-26.16-78.5-78.49v-104.64c0-52.33,26.16-78.49,78.5-78.49h52.32c52.32,0,78.47,26.16,78.47,78.49v104.64Zm-156.97,0c0,17.45,8.74,26.16,26.18,26.16h52.32c17.45,0,26.16-8.71,26.16-26.16v-104.64c0-15.7-8.71-23.54-26.16-23.54h-52.32c-17.45,0-26.18,7.84-26.18,23.54v104.64Z"/>
  <path class="cls-1" d="M1133.72,368.44h-52.32V106.82h44.49l7.83,26.16c17.45-17.43,39.26-26.16,65.42-26.16,61.05,0,91.55,30.53,91.55,91.56v170.05h-52.32V198.39c0-26.16-13.08-39.25-39.24-39.25s-47.97,4.37-65.42,13.09v196.21Z"/>
  <path class="cls-1" d="M1499.98,2.17h52.32V368.44h-44.46l-7.85-26.16c-17.45,17.43-39.24,26.16-65.39,26.16-61.05,0-91.58-30.51-91.58-91.56v-78.49c0-61.04,30.53-91.56,91.58-91.56,26.16,0,47.95,8.72,65.39,26.16V2.17Zm0,300.86V172.23c-17.45-8.72-39.24-13.09-65.39-13.09s-39.26,13.09-39.26,39.25v78.49c0,26.16,13.1,39.24,39.26,39.24s47.95-4.36,65.39-13.08Z"/>
  <path class="cls-1" d="M1656.95,258.56v18.32c0,26.16,13.1,39.24,39.26,39.24h104.63v52.33h-104.63c-61.05,0-91.58-30.51-91.58-91.56v-78.49c0-61.04,30.53-91.56,91.58-91.56h26.16c61.05,0,91.55,30.53,91.55,91.56v60.17h-156.97Zm0-41.86h104.66v-18.31c0-26.16-13.08-39.25-39.24-39.25h-26.16c-26.16,0-39.26,13.09-39.26,39.25v18.31Z"/>
  <path class="cls-1" d="M1918.57,368.44h-52.32V106.82h44.49l7.83,26.16c17.45-17.43,39.26-26.16,65.42-26.16h13.08v52.32h-13.08c-26.16,0-47.97,4.37-65.42,13.09v196.21Z"/>
  <path class="cls-1" d="M151.24,693.18c0-38.34-18.65-56.98-56.98-56.98H59.91c-18.92,0-28.91-10-28.91-28.91v-17.18c0-18.91,9.99-28.91,28.91-28.91h91.33v-28.07H59.91c-38.33,0-56.98,18.64-56.98,56.98v17.18c0,38.34,18.65,56.98,56.98,56.98h34.35c18.92,0,28.91,10,28.91,28.91v17.18c0,18.91-9.99,28.91-28.91,28.91H2.93v28.07H94.26c38.33,0,56.98-18.64,56.98-56.98v-17.18Z"/>
  <path class="cls-1" d="M403.91,650.23c0-32.56-15.83-48.39-48.39-48.39h-34.35c-32.56,0-48.39,15.83-48.39,48.39v68.71c0,32.56,15.83,48.39,48.39,48.39h34.35c32.56,0,48.39-15.83,48.39-48.39v-68.71Zm-28.07,68.71c0,13.1-7.21,20.32-20.32,20.32h-34.35c-13.1,0-20.32-7.21-20.32-20.32v-68.71c0-12,7.21-18.6,20.32-18.6h34.35c13.1,0,20.32,6.6,20.32,18.6v68.71Z"/>
  <rect class="cls-1" x="525.47" y="533.14" width="28.07" height="234.19"/>
  <path class="cls-1" d="M732.06,767.33c16.22,0,29.91-5.47,40.73-16.26l3.71-3.72,5.99,19.97h23.73v-165.49h-28.07v127.62l-1.74,.87c-11.83,5.91-26.75,8.92-44.34,8.92-18.92,0-28.91-10-28.91-28.91v-108.51h-28.07v108.51c0,38.34,18.65,56.98,56.98,56.98Z"/>
  <path class="cls-1" d="M1010.49,767.33h14.04v-28.07h-14.04c-18.92,0-28.91-10-28.91-28.91v-80.44h42.94v-28.07h-42.94v-66.77l-28.07,14.04v52.73h-25.77v28.07h25.77v80.44c0,38.34,18.65,56.98,56.98,56.98Z"/>
  <g>
    <rect class="cls-1" x="1146.06" y="533.14" width="28.07" height="28.07"/>
    <rect class="cls-1" x="1146.06" y="601.85" width="28.07" height="165.49"/>
  </g>
  <path class="cls-1" d="M1426.83,650.23c0-32.56-15.83-48.39-48.39-48.39h-34.35c-32.56,0-48.39,15.83-48.39,48.39v68.71c0,32.56,15.83,48.39,48.39,48.39h34.35c32.56,0,48.39-15.83,48.39-48.39v-68.71Zm-28.07,68.71c0,13.1-7.21,20.32-20.32,20.32h-34.35c-13.1,0-20.32-7.21-20.32-20.32v-68.71c0-12,7.21-18.6,20.32-18.6h34.35c13.1,0,20.32,6.6,20.32,18.6v68.71Z"/>
  <path class="cls-1" d="M1651.43,658.82v108.51h28.07v-108.51c0-38.34-18.65-56.98-56.98-56.98-16.22,0-29.91,5.47-40.73,16.26l-3.71,3.72-5.99-19.97h-23.73v165.49h28.07v-127.62l1.74-.87c11.83-5.91,26.75-8.92,44.34-8.92,18.92,0,28.91,10,28.91,28.91Z"/>
  <path class="cls-1" d="M1875.19,668.83h-25.77c-13.1,0-20.32-6.6-20.32-18.6,0-13.1,7.21-20.32,20.32-20.32h74.15v-28.07h-74.15c-32.56,0-48.39,15.83-48.39,48.39s15.83,46.67,48.39,46.67h25.77c9.28,0,20.32,3.83,20.32,22.04,0,13.1-7.21,20.32-20.32,20.32h-74.15v28.07h74.15c32.56,0,48.39-15.83,48.39-48.39s-15.83-50.11-48.39-50.11Z"/>
</svg>